<?xml version="1.0"?>
<svg xmlns="http://www.w3.org/2000/svg" xmlns:xlink="http://www.w3.org/1999/xlink" width="512" height="512" viewBox="0 0 512 512"><defs><linearGradient id="a" x1="60.606" y1="483.394" x2="527.427" y2="16.573" gradientUnits="userSpaceOnUse"><stop offset="0" stop-color="#003f8a"/><stop offset="0.518" stop-color="#00d7df"/><stop offset="1" stop-color="#006df0"/></linearGradient><linearGradient id="b" x1="164.606" y1="587.394" x2="631.427" y2="120.573" xlink:href="#a"/><linearGradient id="c" x1="22.606" y1="445.394" x2="489.427" y2="-21.427" xlink:href="#a"/><linearGradient id="d" x1="34.606" y1="457.394" x2="501.427" y2="-9.427" xlink:href="#a"/><linearGradient id="e" x1="46.606" y1="469.394" x2="513.427" y2="2.573" xlink:href="#a"/><linearGradient id="f" x1="42.606" y1="465.394" x2="509.427" y2="-1.427" xlink:href="#a"/><linearGradient id="g" x1="-21.394" y1="401.394" x2="445.427" y2="-65.427" xlink:href="#a"/><linearGradient id="h" x1="-9.394" y1="413.394" x2="457.427" y2="-53.427" xlink:href="#a"/><linearGradient id="i" x1="-13.394" y1="409.394" x2="453.427" y2="-57.427" xlink:href="#a"/><linearGradient id="j" x1="-47.394" y1="375.394" x2="419.427" y2="-91.427" xlink:href="#a"/><linearGradient id="k" x1="66.606" y1="489.394" x2="533.427" y2="22.573" xlink:href="#a"/><linearGradient id="l" x1="204.606" y1="627.394" x2="671.427" y2="160.573" xlink:href="#a"/><linearGradient id="m" x1="234.606" y1="657.394" x2="701.427" y2="190.573" xlink:href="#a"/></defs><g><path d="M440,8H136a24.032,24.032,0,0,0-24,24v73.54c-21.78,2.4-42.19,7.57-59.25,15.15A7.994,7.994,0,0,0,48,128V336a8,8,0,0,0,11.25,7.31c15.52-6.9,33.7-11.46,52.75-13.7V480a24.032,24.032,0,0,0,24,24H440a24.032,24.032,0,0,0,24-24V32A24.032,24.032,0,0,0,440,8ZM64,324.21V133.3c44.35-17.78,107.65-17.77,152,.01V324.22C193.78,316.31,167.28,312,140,312S86.22,316.3,64,324.21Zm324.75,19.1A8,8,0,0,0,400,336V128a7.994,7.994,0,0,0-4.75-7.31C371.03,109.93,340.05,104,308,104c-30.63,0-60.29,5.42-84,15.29-20.59-8.58-45.69-13.78-72-15V48H424V424H152V328.27c24.76,1.23,48.93,6.23,68.75,15.04.02.01.03.01.05.02.2.09.41.16.62.24a.784.784,0,0,1,.14.05c.23.07.47.13.71.19a.292.292,0,0,1,.09.02,5.68,5.68,0,0,0,.72.11c.03.01.06.01.09.02.17.01.34.02.51.02.21.01.43.01.64,0,.17,0,.34-.01.51-.02.03-.01.06-.01.09-.02a5.68,5.68,0,0,0,.72-.11.292.292,0,0,1,.09-.02c.24-.06.48-.12.71-.19a.784.784,0,0,1,.14-.05c.21-.08.42-.15.62-.24.02-.01.03-.01.05-.02C273.28,322.85,342.72,322.85,388.75,343.31ZM232,324.22V133.31c44.35-17.78,107.65-17.79,152-.01V324.21C361.78,316.3,335.28,312,308,312S254.22,316.31,232,324.22ZM448,480a8.011,8.011,0,0,1-8,8H136a8.011,8.011,0,0,1-8-8V329c0-.24-.02-.49-.04-.72,2.68-.14,5.36-.22,8.04-.27V432a8,8,0,0,0,8,8H432a8,8,0,0,0,8-8V40a8,8,0,0,0-8-8H144a8,8,0,0,0-8,8v64.05c-2.68.04-5.35.11-8,.23V32a8.011,8.011,0,0,1,8-8H440a8.011,8.011,0,0,1,8,8Z" fill="url(#a)"/><path d="M312,464a24,24,0,1,0-24,24A24.028,24.028,0,0,0,312,464Zm-24,8a8,8,0,1,1,8-8A8.009,8.009,0,0,1,288,472Z" fill="url(#b)"/><path d="M256,168H360a8,8,0,0,0,0-16H256a8,8,0,0,0,0,16Z" fill="url(#c)"/><path d="M256,192H360a8,8,0,0,0,0-16H256a8,8,0,0,0,0,16Z" fill="url(#d)"/><path d="M256,216H360a8,8,0,0,0,0-16H256a8,8,0,0,0,0,16Z" fill="url(#e)"/><path d="M296,224H256a8,8,0,0,0,0,16h40a8,8,0,0,0,0-16Z" fill="url(#f)"/><path d="M88,248H192a8,8,0,0,0,0-16H88a8,8,0,0,0,0,16Z" fill="url(#g)"/><path d="M88,272H192a8,8,0,0,0,0-16H88a8,8,0,0,0,0,16Z" fill="url(#h)"/><path d="M128,280H88a8,8,0,0,0,0,16h40a8,8,0,0,0,0-16Z" fill="url(#i)"/><path d="M88,224H192a8,8,0,0,0,8-8V160a8,8,0,0,0-8-8H88a8,8,0,0,0-8,8v56A8,8,0,0,0,88,224Zm8-56h88v40H96Z" fill="url(#j)"/><path d="M328,224h-8a8,8,0,0,0,0,16h8a8,8,0,0,0,0-16Z" fill="url(#k)"/><path d="M400,456H336a8,8,0,0,0,0,16h64a8,8,0,0,0,0-16Z" fill="url(#l)"/><path d="M432,456h-8a8,8,0,0,0,0,16h8a8,8,0,0,0,0-16Z" fill="url(#m)"/></g></svg>
